<svg xmlns="http://www.w3.org/2000/svg" width="15px" viewBox="0 0 13.837964 30.00375">
    <path d="M9.287 1.958h-4.71c-1.455 0-2.62 1.19-2.62 2.62v20.848c0 1.456 1.192 2.62 2.62 2.62h4.71c1.455 0 2.62-1.19 2.62-2.62V4.576c0-1.427-1.165-2.618-2.62-2.618zm2.037 23.495c0 1.11-.9 2.037-2.037 2.037h-4.71c-1.11 0-2.037-.9-2.037-2.037V4.577c0-1.11.9-2.037 2.037-2.037h4.71c1.11 0 2.037.9 2.037 2.037z"></path>
    <path d="M5.503 6.085c.635 0 1.138-.502 1.138-1.137S6.14 3.81 5.51 3.81s-1.14.503-1.14 1.138c0 .608.5 1.137 1.136 1.137zm0-1.666c.29 0 .53.23.53.52 0 .29-.24.53-.53.53-.29 0-.53-.24-.53-.53 0-.29.24-.53.53-.53zm0 4.47c.635 0 1.138-.51 1.138-1.14 0-.64-.5-1.14-1.13-1.14s-1.14.5-1.14 1.14.5 1.14 1.14 1.14zm0-1.67c.29 0 .53.24.53.53 0 .29-.24.53-.53.53-.29 0-.53-.24-.53-.53 0-.29.24-.53.53-.53zm0 7.27c.635 0 1.138-.51 1.138-1.14 0-.64-.5-1.14-1.13-1.14s-1.13.5-1.13 1.13c0 .634.5 1.14 1.14 1.14zm0-1.67c.29 0 .53.24.53.53 0 .29-.24.53-.53.53-.29 0-.53-.24-.53-.53 0-.29.24-.53.53-.53zm0 4.47c.635 0 1.138-.51 1.138-1.14s-.5-1.14-1.13-1.14-1.13.5-1.13 1.14c0 .63.5 1.13 1.14 1.13zm0-1.67c.29 0 .53.24.53.53 0 .29-.24.53-.53.53-.29 0-.53-.24-.53-.53 0-.29.24-.53.53-.53zM8.36 6.08c.636 0 1.14-.502 1.14-1.137S8.995 3.81 8.36 3.81c-.634 0-1.137.503-1.137 1.138 0 .608.53 1.137 1.138 1.137zm0-1.666c.292 0 .53.235.53.526 0 .29-.238.53-.53.53-.29 0-.528-.24-.528-.53 0-.29.238-.53.53-.53zm0 4.47c.636 0 1.14-.504 1.14-1.14 0-.634-.504-1.136-1.14-1.136-.634 0-1.137.504-1.137 1.14s.53 1.14 1.137 1.14zm0-1.668c.292 0 .53.236.53.53 0 .29-.238.526-.53.526-.29 0-.528-.236-.528-.527 0-.29.238-.53.53-.53zm0 7.275c.636 0 1.14-.5 1.14-1.14 0-.63-.504-1.13-1.14-1.13-.634 0-1.137.5-1.137 1.14 0 .64.53 1.14 1.138 1.14zm0-1.67c.292 0 .53.24.53.53 0 .29-.238.53-.53.53-.29 0-.528-.24-.528-.53 0-.29.238-.53.53-.53zm-2.857-1.13c.635 0 1.138-.5 1.138-1.13s-.5-1.14-1.13-1.14-1.13.5-1.13 1.14.5 1.14 1.14 1.14zm0-1.66c.29 0 .53.24.53.53 0 .29-.24.53-.53.53-.29 0-.53-.23-.53-.53 0-.29.24-.52.53-.52zm2.857 1.66c.636 0 1.14-.5 1.14-1.13s-.504-1.14-1.14-1.14c-.634 0-1.137.5-1.137 1.14s.53 1.14 1.138 1.14zm0-1.66c.292 0 .53.24.53.53 0 .29-.238.53-.53.53-.29 0-.528-.23-.528-.53 0-.29.238-.52.53-.52zm0 7.28c.636 0 1.14-.51 1.14-1.14 0-.64-.504-1.14-1.14-1.14-.634 0-1.137.5-1.137 1.14 0 .63.53 1.14 1.138 1.14zm0-1.67c.292 0 .53.24.53.53 0 .29-.238.53-.53.53-.29 0-.528-.24-.528-.53 0-.29.238-.53.53-.53zm-1.428 2.38c-1.323 0-2.434.92-2.752 2.17-.714.74-1.137 1.69-1.137 2.72 0 2.01 1.56 3.705 3.572 3.864h.054c.08 0 .18.026.26.026h.27c2.01-.158 3.57-1.85 3.57-3.86 0-1.035-.4-1.988-1.14-2.73-.27-1.27-1.38-2.194-2.7-2.194zm0 .58c1.11 0 2.01.82 2.196 1.85.027.13.027.24.027.37v3.36c0 .05-.027.11-.027.185v.027c-.026.054-.026.13-.053.186v.025c-.264.85-1.058 1.48-1.984 1.537h-.13c-.16 0-.29-.023-.45-.05-.71-.16-1.32-.66-1.59-1.322l-.07-.183v-.025c-.02-.05-.02-.1-.05-.153v-.054c0-.053-.03-.106-.03-.16v-3.36c0-.16.03-.32.06-.45.13-1 1.03-1.77 2.12-1.77zm-3.28 4.28c0-.58.158-1.162.45-1.664v2.69c0 .136 0 .24.026.347 0 .027 0 .08.026.106 0 .08.027.16.053.236 0 .02 0 .05.026.08-.37-.51-.582-1.14-.582-1.8zm6.005 1.83c0-.022 0-.05.027-.08.026-.08.026-.154.053-.233 0-.03 0-.08.026-.107.027-.11.027-.24.027-.348v-2.7c.29.51.45 1.06.45 1.67-.027.64-.24 1.27-.583 1.8z"></path>
    <path d="M9.34 0H4.524C2.037 0 0 2.037 0 4.524V25.48c0 2.486 2.037 4.524 4.524 4.524h4.79c2.486 0 4.524-2.038 4.524-4.525V4.52C13.864 2.037 11.828 0 9.34 0zm3.2 25.48c0 1.772-1.428 3.2-3.2 3.2H4.524c-1.772 0-3.2-1.428-3.2-3.2V4.523c0-1.772 1.428-3.2 3.2-3.2h4.79c1.772 0 3.2 1.428 3.2 3.2V25.48z"></path>
</svg>